PathFileType	4	(X/Y/Z)	/Users/itak/Documents/Research/Walk-IL/dataset/trc/00107_00007.trc
DataRate	CameraRate	NumFrames	NumMarkers	Units	OrigDataRate	OrigDataStartFrame	OrigNumFrames
100.000000	100.000000	4	53	mm	100.000000	490	561
Frame#	Time	RPSI			LPSI			L3			STRN			T10			C7			CLAV			RBAK			LBAK			LSHO			LUPA			LAEL			LAOL			LWTS			LWPS			LFRA			LIFD			LHPS			LHTS			RSHO			RUPA			RAEL			RAOL			RWTS			RWPS			RFRA			RIFD			RHTS			RHPS			RBHD			LFHD			RFHD			LBHD			LHIP			RHIP			RASI			LASI			LKNE			LTHI			LANK			LTIP			LTOE			LMT1			LMT5			LHEE			RKNE			RTHI			RANK			RTIP			RTOE			RMT1			RMT5			RHEE			
		X1	Y1	Z1	X2	Y2	Z2	X3	Y3	Z3	X4	Y4	Z4	X5	Y5	Z5	X6	Y6	Z6	X7	Y7	Z7	X8	Y8	Z8	X9	Y9	Z9	X10	Y10	Z10	X11	Y11	Z11	X12	Y12	Z12	X13	Y13	Z13	X14	Y14	Z14	X15	Y15	Z15	X16	Y16	Z16	X17	Y17	Z17	X18	Y18	Z18	X19	Y19	Z19	X20	Y20	Z20	X21	Y21	Z21	X22	Y22	Z22	X23	Y23	Z23	X24	Y24	Z24	X25	Y25	Z25	X26	Y26	Z26	X27	Y27	Z27	X28	Y28	Z28	X29	Y29	Z29	X30	Y30	Z30	X31	Y31	Z31	X32	Y32	Z32	X33	Y33	Z33	X34	Y34	Z34	X35	Y35	Z35	X36	Y36	Z36	X37	Y37	Z37	X38	Y38	Z38	X39	Y39	Z39	X40	Y40	Z40	X41	Y41	Z41	X42	Y42	Z42	X43	Y43	Z43	X44	Y44	Z44	X45	Y45	Z45	X46	Y46	Z46	X47	Y47	Z47	X48	Y48	Z48	X49	Y49	Z49	X50	Y50	Z50	X51	Y51	Z51	X52	Y52	Z52	X53	Y53	Z53	

491	4.9	268.858154296875	1123.810668945312	-265.8000793457031	265.8515319824219	1125.928100585938	-400.9062194824219	260.1302795410156	1157.702514648438	-335.19873046875	468.322509765625	1369.70068359375	-339.3826904296875	213.3595581054688	1304.439453125	-335.6145324707031	234.5340728759766	1598.3115234375	-349.7182006835938	423.2101745605469	1501.045532226562	-340.4546508789062	190.6199493408203	1410.913940429688	-261.6785278320312	227.7713165283203	1578.705444335938	-451.6418762207031	316.8067626953125	1570.36669921875	-518.8659057617188	308.7071533203125	1438.120849609375	-589.770751953125	352.6267395019531	1221.386840820312	-611.1014404296875	284.5823364257812	1199.280517578125	-558.7986450195312	498.8515625	991.3062133789062	-557.3515625	425.2029418945312	947.2227783203125	-587.2422485351562	389.8731079101562	1109.945678710938	-612.0203857421875	548.425537109375	804.9625854492188	-527.9443969726562	469.2586669921875	879.8614501953125	-584.29833984375	531.9559326171875	905.45947265625	-564.6080932617188	292.7491760253906	1581.27197265625	-167.0821533203125	280.6145324707031	1506.559326171875	-103.9254837036133	280.2155151367188	1211.565551757812	-89.26251983642578	277.5161743164062	1212.134155273438	-185.6993255615234	423.3764953613281	968.8157958984375	-103.944091796875	349.1421813964844	952.3463745117188	-73.81099700927734	304.079345703125	1138.741088867188	-74.69961547851562	441.4335021972656	774.336181640625	-130.9721374511719	449.907470703125	858.7879028320312	-102.5102081298828	383.5850524902344	851.8109130859375	-72.76327514648438	272.5087585449219	1777.73291015625	-270.5068969726562	427.4588623046875	1841.17333984375	-413.9879760742188	433.5982971191406	1850.741455078125	-284.7826843261719	257.0111999511719	1771.635620117188	-405.6621398925781	361.7659606933594	1041.077270507812	-509.9362487792969	403.0686340332031	1032.780151367188	-152.4654693603516	478.9712524414062	1109.939208984375	-206.6812744140625	466.8580017089844	1113.555541992188	-474.2348937988281	397.881103515625	541.8303833007812	-483.2255554199219	372.8175354003906	686.3383178710938	-510.9227294921875	293.9765014648438	34.97933959960938	-478.1505126953125	300.8938293457031	292.2439575195312	-511.7530212402344	522.1306762695312	38.64938354492188	-409.9016723632812	439.7544555664062	44.4995231628418	-381.1549987792969	420.3344421386719	33.26545715332031	-498.7191162109375	222.4603424072266	37.82474136352539	-419.7630004882812	394.5244140625	540.24560546875	-197.9810180664062	424.1629638671875	822.9608764648438	-167.2795257568359	289.0597229003906	29.69914817810059	-224.9388885498047	365.9317626953125	406.9485168457031	-190.9837036132812	519.5279541015625	42.57181930541992	-287.4791870117188	457.4311828613281	35.48321151733398	-326.3815002441406	422.7522277832031	37.65652847290039	-207.7460479736328	229.551025390625	34.01125717163086	-271.056396484375	
492	4.91	269.2144775390625	1123.84619140625	-266.6991882324219	266.5732727050781	1125.936401367188	-401.8044128417969	260.7371215820312	1157.723266601562	-336.1052551269531	468.9566955566406	1369.689453125	-339.6365966796875	213.8823394775391	1304.477172851562	-336.6722412109375	235.1647796630859	1598.327392578125	-350.5674438476562	423.8606567382812	1501.046142578125	-340.7746276855469	191.0361022949219	1410.892578125	-262.7419738769531	228.7880706787109	1578.761596679688	-452.4902038574219	318.0314331054688	1570.469116210938	-519.4557495117188	310.1204833984375	1438.215576171875	-590.4072265625	354.0592041015625	1221.445190429688	-611.5560302734375	285.7968139648438	1199.443969726562	-559.515869140625	499.4030151367188	990.9331665039062	-557.3658447265625	425.7391662597656	947.05029296875	-587.5252075195312	391.0235595703125	1109.892333984375	-612.3589477539062	547.9722290039062	803.853759765625	-527.5554809570312	469.5794677734375	879.5348510742188	-584.4365844726562	532.3502807617188	905.0151977539062	-564.5507202148438	292.8684387207031	1581.211791992188	-167.7562561035156	280.5617065429688	1506.4931640625	-104.6333236694336	280.3274230957031	1211.495239257812	-89.95379638671875	277.9208984375	1212.025024414062	-186.3919982910156	424.0521545410156	969.0271606445312	-104.1784896850586	349.7779235839844	952.4009399414062	-74.26447296142578	304.2987060546875	1138.698852539062	-75.29413604736328	442.6913757324219	774.5995483398438	-131.0474243164062	450.8844909667969	859.082763671875	-102.5963134765625	384.4728393554688	851.9462890625	-73.06581115722656	273.0217590332031	1777.750732421875	-271.0536804199219	428.0501403808594	1841.149047851562	-414.5054016113281	434.1312255859375	1850.782470703125	-285.3167724609375	257.6005249023438	1771.619750976562	-406.2163391113281	362.7033386230469	1041.032104492188	-510.5343322753906	403.1317138671875	1032.797729492188	-152.9701690673828	479.1760559082031	1109.911987304688	-207.0072479248047	467.8317565917969	1113.583251953125	-474.62255859375	398.3810729980469	541.7899780273438	-483.4854125976562	373.5042724609375	686.267333984375	-511.2229309082031	293.9942321777344	34.99513244628906	-478.1421203613281	301.1122741699219	292.210205078125	-511.9341125488281	522.15625	38.61837005615234	-409.8926696777344	439.7738037109375	44.48650741577148	-381.1425170898438	420.3383178710938	33.26443862915039	-498.7152099609375	222.4742126464844	37.84457778930664	-419.7589111328125	394.5746765136719	540.2886962890625	-198.2571716308594	424.53271484375	823.1561279296875	-167.7913970947266	289.0534057617188	29.73264694213867	-224.9719848632812	365.9645080566406	407.0048522949219	-191.2311401367188	519.5315551757812	42.56695938110352	-287.4435424804688	457.4445495605469	35.47631454467773	-326.3748168945312	422.755859375	37.66634750366211	-207.7540130615234	229.5517272949219	34.02163696289062	-271.0895080566406	
493	4.92	269.5301208496094	1123.874755859375	-267.6039123535156	267.2768249511719	1125.932373046875	-402.703125	261.3176574707031	1157.735961914062	-337.0098266601562	469.5675964355469	1369.670043945312	-339.8707580566406	214.417236328125	1304.516845703125	-337.7162475585938	235.7962646484375	1598.347412109375	-351.4047241210938	424.4985046386719	1501.0390625	-341.088134765625	191.4853210449219	1410.882568359375	-263.7689208984375	229.7910919189453	1578.813232421875	-453.3236999511719	319.23193359375	1570.554565429688	-520.0354614257812	311.4957885742188	1438.298828125	-591.0303344726562	355.4031372070312	1221.481079101562	-612.0030517578125	286.9158325195312	1199.612182617188	-560.2268676757812	499.7799682617188	990.481689453125	-557.3923950195312	426.0772705078125	946.8239135742188	-587.821533203125	392.0509033203125	1109.810791015625	-612.6964111328125	547.2581176757812	802.659423828125	-527.209228515625	469.6510009765625	879.1369018554688	-584.5841674804688	532.5419311523438	904.4924926757812	-564.5199584960938	293.0063781738281	1581.161987304688	-168.4166107177734	280.5230407714844	1506.438110351562	-105.3316421508789	280.4791870117188	1211.434204101562	-90.60899353027344	278.3420715332031	1211.921752929688	-187.0485076904297	424.8128051757812	969.2900390625	-104.3829879760742	350.4977111816406	952.4854125976562	-74.68793487548828	304.5701904296875	1138.671997070312	-75.85186004638672	444.1056518554688	774.9199829101562	-131.0800476074219	451.9970397949219	859.4369506835938	-102.6437835693359	385.51220703125	852.1211547851562	-73.32233428955078	273.5220336914062	1777.744873046875	-271.5951538085938	428.6281433105469	1841.137939453125	-415.0104064941406	434.6295471191406	1850.830810546875	-285.8424987792969	258.1852416992188	1771.587646484375	-406.7707214355469	363.6261901855469	1040.998901367188	-511.119140625	403.1396789550781	1032.812866210938	-153.4521026611328	479.36083984375	1109.8759765625	-207.2876586914062	468.7603759765625	1113.576538085938	-474.9553833007812	398.8746337890625	541.7138061523438	-483.7247314453125	374.1690063476562	686.2021484375	-511.5223083496094	294.009521484375	35.00864028930664	-478.1339111328125	301.33984375	292.1766662597656	-512.1017456054688	522.1802368164062	38.59038543701172	-409.8827514648438	439.7909240722656	44.47739410400391	-381.1314697265625	420.3432006835938	33.26317596435547	-498.7105102539062	222.4876403808594	37.85830688476562	-419.7549438476562	394.5592651367188	540.3270874023438	-198.5149078369141	424.8424377441406	823.361328125	-168.2739562988281	289.0474548339844	29.76162147521973	-224.9992370605469	365.9492797851562	407.0614624023438	-191.4581451416016	519.5311889648438	42.57130432128906	-287.4053955078125	457.4531555175781	35.47209167480469	-326.3598327636719	422.7603759765625	37.6822395324707	-207.7588195800781	229.5567779541016	34.03134536743164	-271.1152038574219	
494	4.93	269.8157653808594	1123.896484375	-268.5086669921875	267.9639892578125	1125.91552734375	-403.5996398925781	261.8700256347656	1157.738647460938	-337.9128723144531	470.1602172851562	1369.642333984375	-340.0908508300781	214.9741668701172	1304.552124023438	-338.7403259277344	236.4260864257812	1598.366821289062	-352.2287902832031	425.1245422363281	1501.021850585938	-341.3935241699219	191.9599304199219	1410.88134765625	-264.7615051269531	230.7771911621094	1578.858154296875	-454.1450805664062	320.4083862304688	1570.618530273438	-520.606201171875	312.8317565917969	1438.363525390625	-591.6385498046875	356.6586608886719	1221.48974609375	-612.44189453125	287.9389953613281	1199.773071289062	-560.928955078125	499.9873962402344	989.9432373046875	-557.4256591796875	426.2367248535156	946.54443359375	-588.1383666992188	392.9626159667969	1109.698974609375	-613.035400390625	546.330322265625	801.439453125	-526.934814453125	469.4903259277344	878.6693725585938	-584.7460327148438	532.5396118164062	903.8930053710938	-564.5084228515625	293.1621398925781	1581.11767578125	-169.0640716552734	280.4943237304688	1506.390014648438	-106.0239791870117	280.6628723144531	1211.376586914062	-91.22232818603516	278.7613830566406	1211.816772460938	-187.6638946533203	425.6584777832031	969.60205078125	-104.5645980834961	351.2989807128906	952.5949096679688	-75.08108520507812	304.887939453125	1138.653686523438	-76.36940765380859	445.666748046875	775.2938842773438	-131.0848999023438	453.2354736328125	859.8468627929688	-102.6674270629883	386.7002563476562	852.3313598632812	-73.539306640625	274.0123291015625	1777.715698242188	-272.1275329589844	429.1903381347656	1841.133666992188	-415.5003967285156	435.0930786132812	1850.881591796875	-286.3552856445312	258.7607727050781	1771.535278320312	-407.3226928710938	364.5341491699219	1040.972045898438	-511.6925048828125	403.1060180664062	1032.825561523438	-153.9110717773438	479.5290832519531	1109.830688476562	-207.5284881591797	469.6431579589844	1113.530639648438	-475.235107421875	399.3505859375	541.5990600585938	-483.9410095214844	374.8057861328125	686.1449584960938	-511.8233032226562	294.0228881835938	35.01966857910156	-478.1266784667969	301.5802001953125	292.1412048339844	-512.2556762695312	522.2037353515625	38.56472396850586	-409.8722229003906	439.806396484375	44.47136306762695	-381.120849609375	420.3497009277344	33.26171875	-498.7051086425781	222.5003356933594	37.86689376831055	-419.7514953613281	394.4819030761719	540.36083984375	-198.7583618164062	425.04345703125	823.5296630859375	-168.6946868896484	289.0425109863281	29.7859001159668	-225.0217742919922	365.8941040039062	407.11767578125	-191.6656646728516	519.5280151367188	42.58455276489258	-287.3667602539062	457.4583129882812	35.46995544433594	-326.3384704589844	422.7666015625	37.70424652099609	-207.7607421875	229.5646820068359	34.04003524780273	-271.136474609375	
